<svg id="グループ_43" data-name="グループ 43" xmlns="http://www.w3.org/2000/svg" width="49" height="24" viewBox="0 0 49 24">
  <defs>
    <style>
      .cls-1, .cls-2 {
        fill: none;
      }

      .cls-1 {
        stroke: #333;
        stroke-width: 2px;
      }

      .cls-3, .cls-4 {
        stroke: none;
      }

      .cls-4 {
        fill: #333;
      }
    </style>
  </defs>
  <line id="線_1" data-name="線 1" class="cls-1" x2="45" transform="translate(0 12)"/>
  <g id="多角形_1" data-name="多角形 1" class="cls-2" transform="translate(49) rotate(90)">
    <path class="cls-3" d="M10.2,3.756a2,2,0,0,1,3.606,0l8.822,18.378A2,2,0,0,1,20.822,25H3.178a2,2,0,0,1-1.8-2.865Z"/>
    <path class="cls-4" d="M 12 4.621805191040039 L 3.178470611572266 22.9999942779541 L 20.82152938842773 22.9999942779541 L 12.00000953674316 4.621824264526367 C 12.00000667572021 4.621818542480469 12.00000381469727 4.621810913085938 12 4.621805191040039 M 12 2.621805191040039 C 12.71999740600586 2.621805191040039 13.43999481201172 2.999984741210938 13.80305004119873 3.756343841552734 L 22.62458038330078 22.13453483581543 C 23.26185989379883 23.46221542358398 22.29422950744629 24.9999942779541 20.82152938842773 24.9999942779541 L 3.178470611572266 24.9999942779541 C 1.705770492553711 24.9999942779541 0.7381401062011719 23.46221542358398 1.375419616699219 22.13453483581543 L 10.19694995880127 3.756343841552734 C 10.56000518798828 2.999984741210938 11.28000259399414 2.621805191040039 12 2.621805191040039 Z"/>
  </g>
</svg>
