<svg xmlns="http://www.w3.org/2000/svg" width="49" height="24" viewBox="0 0 49 24">
  <defs>
    <style>
      .cls-1, .cls-2 {
        fill: none;
      }

      .cls-1 {
        stroke: #fcfaf9;
        stroke-width: 2px;
      }

      .cls-3, .cls-4 {
        stroke: none;
      }

      .cls-4 {
        fill: #fcfaf9;
      }
    </style>
  </defs>
  <g id="グループ_43" data-name="グループ 43" transform="translate(-522 -1610)">
    <line id="線_1" data-name="線 1" class="cls-1" x2="45" transform="translate(522 1622)"/>
    <g id="多角形_1" data-name="多角形 1" class="cls-2" transform="translate(571 1610) rotate(90)">
      <path class="cls-3" d="M10.2,3.756a2,2,0,0,1,3.606,0l8.822,18.378A2,2,0,0,1,20.822,25H3.178a2,2,0,0,1-1.8-2.865Z"/>
      <path class="cls-4" d="M 11.99999904632568 4.621805191040039 L 3.178468704223633 22.9999942779541 L 20.82152938842773 22.9999942779541 L 12.00000858306885 4.621824264526367 C 12.0000057220459 4.621818542480469 12.00000286102295 4.621810913085938 11.99999904632568 4.621805191040039 M 11.99999904632568 2.621805191040039 C 12.71999645233154 2.621805191040039 13.4399938583374 2.999984741210938 13.80304908752441 3.756343841552734 L 22.62457847595215 22.13453483581543 C 23.26185989379883 23.46221542358398 22.29422950744629 24.9999942779541 20.82152938842773 24.9999942779541 L 3.178468704223633 24.9999942779541 C 1.705768585205078 24.9999942779541 0.7381381988525391 23.46221542358398 1.375419616699219 22.13453483581543 L 10.19694900512695 3.756343841552734 C 10.56000423431396 2.999984741210938 11.28000164031982 2.621805191040039 11.99999904632568 2.621805191040039 Z"/>
    </g>
  </g>
</svg>
